<svg width="250" height="41" viewBox="0 0 250 41" fill="none" xmlns="http://www.w3.org/2000/svg">
<path d="M26.5228 3.23755C23.185 4.14101 17.9216 5.96299 17.5 6.02322V37.1927L26.5228 39.9031V3.23755Z" fill="#675AF5"/>
<path d="M39.1716 0.0617676V40.0141H26.8408V2.92628H12.8456V40.0141H0.817383V0.0617676H39.1716Z" fill="#675AF5"/>
<rect width="210" height="40" transform="translate(39.1709)" fill="#675AF5"/>
<path d="M54.6149 33L49.0709 23.208H46.6949V33H41.6549V7.872H51.0869C53.0309 7.872 54.6869 8.22 56.0549 8.916C57.4229 9.588 58.4429 10.512 59.1149 11.688C59.8109 12.84 60.1589 14.136 60.1589 15.576C60.1589 17.232 59.6789 18.732 58.7189 20.076C57.7589 21.396 56.3309 22.308 54.4349 22.812L60.4469 33H54.6149ZM46.6949 19.428H50.9069C52.2749 19.428 53.2949 19.104 53.9669 18.456C54.6389 17.784 54.9749 16.86 54.9749 15.684C54.9749 14.532 54.6389 13.644 53.9669 13.02C53.2949 12.372 52.2749 12.048 50.9069 12.048H46.6949V19.428ZM73.5734 33.324C71.6534 33.324 69.9254 32.904 68.3894 32.064C66.8534 31.2 65.6414 29.988 64.7534 28.428C63.8894 26.868 63.4574 25.068 63.4574 23.028C63.4574 20.988 63.9014 19.188 64.7894 17.628C65.7014 16.068 66.9374 14.868 68.4974 14.028C70.0574 13.164 71.7974 12.732 73.7174 12.732C75.6374 12.732 77.3774 13.164 78.9374 14.028C80.4974 14.868 81.7214 16.068 82.6094 17.628C83.5214 19.188 83.9774 20.988 83.9774 23.028C83.9774 25.068 83.5094 26.868 82.5734 28.428C81.6614 29.988 80.4134 31.2 78.8294 32.064C77.2694 32.904 75.5174 33.324 73.5734 33.324ZM73.5734 28.932C74.4854 28.932 75.3374 28.716 76.1294 28.284C76.9454 27.828 77.5934 27.156 78.0734 26.268C78.5534 25.38 78.7934 24.3 78.7934 23.028C78.7934 21.132 78.2894 19.68 77.2814 18.672C76.2974 17.64 75.0854 17.124 73.6454 17.124C72.2054 17.124 70.9934 17.64 70.0094 18.672C69.0494 19.68 68.5694 21.132 68.5694 23.028C68.5694 24.924 69.0374 26.388 69.9734 27.42C70.9334 28.428 72.1334 28.932 73.5734 28.932ZM96.5304 33.324C94.6104 33.324 92.8824 32.904 91.3464 32.064C89.8104 31.2 88.5984 29.988 87.7104 28.428C86.8464 26.868 86.4144 25.068 86.4144 23.028C86.4144 20.988 86.8584 19.188 87.7464 17.628C88.6584 16.068 89.8944 14.868 91.4544 14.028C93.0144 13.164 94.7544 12.732 96.6744 12.732C98.5944 12.732 100.334 13.164 101.894 14.028C103.454 14.868 104.678 16.068 105.566 17.628C106.478 19.188 106.934 20.988 106.934 23.028C106.934 25.068 106.466 26.868 105.53 28.428C104.618 29.988 103.37 31.2 101.786 32.064C100.226 32.904 98.4744 33.324 96.5304 33.324ZM96.5304 28.932C97.4424 28.932 98.2944 28.716 99.0864 28.284C99.9024 27.828 100.55 27.156 101.03 26.268C101.51 25.38 101.75 24.3 101.75 23.028C101.75 21.132 101.246 19.68 100.238 18.672C99.2544 17.64 98.0424 17.124 96.6024 17.124C95.1624 17.124 93.9504 17.64 92.9664 18.672C92.0064 19.68 91.5264 21.132 91.5264 23.028C91.5264 24.924 91.9944 26.388 92.9304 27.42C93.8904 28.428 95.0904 28.932 96.5304 28.932ZM135.399 12.768C137.847 12.768 139.815 13.524 141.303 15.036C142.815 16.524 143.571 18.612 143.571 21.3V33H138.531V21.984C138.531 20.424 138.135 19.236 137.343 18.42C136.551 17.58 135.471 17.16 134.103 17.16C132.735 17.16 131.643 17.58 130.827 18.42C130.035 19.236 129.639 20.424 129.639 21.984V33H124.599V21.984C124.599 20.424 124.203 19.236 123.411 18.42C122.619 17.58 121.539 17.16 120.171 17.16C118.779 17.16 117.675 17.58 116.859 18.42C116.067 19.236 115.671 20.424 115.671 21.984V33H110.631V13.056H115.671V15.468C116.319 14.628 117.147 13.968 118.155 13.488C119.187 13.008 120.315 12.768 121.539 12.768C123.099 12.768 124.491 13.104 125.715 13.776C126.939 14.424 127.887 15.36 128.559 16.584C129.207 15.432 130.143 14.508 131.367 13.812C132.615 13.116 133.959 12.768 135.399 12.768ZM155.708 20.4C155.708 17.928 156.26 15.72 157.364 13.776C158.492 11.808 160.016 10.284 161.936 9.204C163.88 8.1 166.052 7.548 168.452 7.548C171.26 7.548 173.72 8.268 175.832 9.708C177.944 11.148 179.42 13.14 180.26 15.684H174.464C173.888 14.484 173.072 13.584 172.016 12.984C170.984 12.384 169.784 12.084 168.416 12.084C166.952 12.084 165.644 12.432 164.492 13.128C163.364 13.8 162.476 14.76 161.828 16.008C161.204 17.256 160.892 18.72 160.892 20.4C160.892 22.056 161.204 23.52 161.828 24.792C162.476 26.04 163.364 27.012 164.492 27.708C165.644 28.38 166.952 28.716 168.416 28.716C169.784 28.716 170.984 28.416 172.016 27.816C173.072 27.192 173.888 26.28 174.464 25.08H180.26C179.42 27.648 177.944 29.652 175.832 31.092C173.744 32.508 171.284 33.216 168.452 33.216C166.052 33.216 163.88 32.676 161.936 31.596C160.016 30.492 158.492 28.968 157.364 27.024C156.26 25.08 155.708 22.872 155.708 20.4ZM195.797 12.768C197.309 12.768 198.653 13.104 199.829 13.776C201.005 14.424 201.917 15.396 202.565 16.692C203.237 17.964 203.573 19.5 203.573 21.3V33H198.533V21.984C198.533 20.4 198.137 19.188 197.345 18.348C196.553 17.484 195.473 17.052 194.105 17.052C192.713 17.052 191.609 17.484 190.793 18.348C190.001 19.188 189.605 20.4 189.605 21.984V33H184.565V6.36H189.605V15.54C190.253 14.676 191.117 14.004 192.197 13.524C193.277 13.02 194.477 12.768 195.797 12.768ZM207.07 22.956C207.07 20.94 207.466 19.152 208.258 17.592C209.074 16.032 210.166 14.832 211.534 13.992C212.926 13.152 214.474 12.732 216.178 12.732C217.666 12.732 218.962 13.032 220.066 13.632C221.194 14.232 222.094 14.988 222.766 15.9V13.056H227.842V33H222.766V30.084C222.118 31.02 221.218 31.8 220.066 32.424C218.938 33.024 217.63 33.324 216.142 33.324C214.462 33.324 212.926 32.892 211.534 32.028C210.166 31.164 209.074 29.952 208.258 28.392C207.466 26.808 207.07 24.996 207.07 22.956ZM222.766 23.028C222.766 21.804 222.526 20.76 222.046 19.896C221.566 19.008 220.918 18.336 220.102 17.88C219.286 17.4 218.41 17.16 217.474 17.16C216.538 17.16 215.674 17.388 214.882 17.844C214.09 18.3 213.442 18.972 212.938 19.86C212.458 20.724 212.218 21.756 212.218 22.956C212.218 24.156 212.458 25.212 212.938 26.124C213.442 27.012 214.09 27.696 214.882 28.176C215.698 28.656 216.562 28.896 217.474 28.896C218.41 28.896 219.286 28.668 220.102 28.212C220.918 27.732 221.566 27.06 222.046 26.196C222.526 25.308 222.766 24.252 222.766 23.028ZM238.632 17.196V26.844C238.632 27.516 238.788 28.008 239.1 28.32C239.436 28.608 239.988 28.752 240.756 28.752H243.096V33H239.928C235.68 33 233.556 30.936 233.556 26.808V17.196H231.18V13.056H233.556V8.124H238.632V13.056H243.096V17.196H238.632Z" fill="#FAD0E3"/>
</svg>
