<svg width="16" height="16" viewBox="0 0 16 16" fill="none" xmlns="http://www.w3.org/2000/svg">
<path d="M12.5 4.82617H3.5V3.32617H12.5V4.82617ZM12.5 7.07617H3.5V5.57617H12.5V7.07617ZM12.5 9.32617H3.5V7.82617H12.5V9.32617ZM15.5 1.82617C15.5 1.42835 15.342 1.04682 15.0607 0.765512C14.7794 0.484207 14.3978 0.326172 14 0.326172H2C1.60218 0.326172 1.22064 0.484207 0.93934 0.765512C0.658035 1.04682 0.5 1.42835 0.5 1.82617V10.8262C0.5 11.224 0.658035 11.6055 0.93934 11.8868C1.22064 12.1681 1.60218 12.3262 2 12.3262H12.5L15.5 15.3262V1.82617Z" fill="#888CA4"/>
</svg>
