<svg width="16" height="13" viewBox="0 0 16 13" fill="none" xmlns="http://www.w3.org/2000/svg">
<path d="M11 10.5762V12.0762H0.5V10.5762C0.5 10.5762 0.5 7.57621 5.75 7.57621C11 7.57621 11 10.5762 11 10.5762ZM8.375 3.45121C8.375 2.93204 8.22105 2.42452 7.93261 1.99284C7.64417 1.56116 7.2342 1.22471 6.75454 1.02603C6.27489 0.827348 5.74709 0.775364 5.23789 0.87665C4.72869 0.977936 4.26096 1.22794 3.89384 1.59506C3.52673 1.96217 3.27673 2.4299 3.17544 2.9391C3.07415 3.4483 3.12614 3.9761 3.32482 4.45575C3.5235 4.93541 3.85995 5.34538 4.29163 5.63382C4.72331 5.92226 5.23082 6.07621 5.75 6.07621C6.44619 6.07621 7.11387 5.79965 7.60616 5.30737C8.09844 4.81508 8.375 4.1474 8.375 3.45121ZM10.955 7.57621C11.4161 7.93302 11.7933 8.38654 12.0603 8.90484C12.3272 9.42315 12.4773 9.99365 12.5 10.5762V12.0762H15.5V10.5762C15.5 10.5762 15.5 7.85371 10.955 7.57621ZM10.25 0.826211C9.73377 0.823337 9.22889 0.977678 8.8025 1.26871C9.25808 1.90526 9.50304 2.66843 9.50304 3.45121C9.50304 4.234 9.25808 4.99716 8.8025 5.63371C9.22889 5.92474 9.73377 6.07909 10.25 6.07621C10.9462 6.07621 11.6139 5.79965 12.1062 5.30737C12.5984 4.81508 12.875 4.1474 12.875 3.45121C12.875 2.75502 12.5984 2.08734 12.1062 1.59506C11.6139 1.10277 10.9462 0.826211 10.25 0.826211Z" fill="#888CA4"/>
</svg>
